<mxfile host="Chrome" modified="2023-05-10T19:43:38.374Z" agent="Mozilla/5.0 (Windows NT 10.0; Win64; x64) AppleWebKit/537.36 (KHTML, like Gecko) Chrome/113.0.0.0 Safari/537.36" version="21.2.7" etag="jOfP4NStczFdIJokLc-b" type="device">
  <diagram id="aQ4PM6Y3vd7NjKrtNCfK" name="Page-1">
    <mxGraphModel dx="2364" dy="1967" grid="1" gridSize="10" guides="1" tooltips="1" connect="1" arrows="1" fold="1" page="1" pageScale="1" pageWidth="850" pageHeight="1100" math="0" shadow="0">
      <root>
        <mxCell id="0" />
        <mxCell id="1" parent="0" />
        <mxCell id="yK_RE_3933SGKBnFoA6W-1" value="Person" style="html=1;overflow=block;blockSpacing=1;swimlane;childLayout=stackLayout;horizontal=1;horizontalStack=0;resizeParent=1;resizeParentMax=0;resizeLast=0;collapsible=0;marginBottom=0;swimlaneFillColor=#ffffff;startSize=25;whiteSpace=wrap;fontSize=16.7;fontColor=#3a414a;fontStyle=2;align=center;spacing=0;strokeColor=#3a414a;strokeOpacity=100;rounded=1;absoluteArcSize=1;arcSize=9;strokeWidth=0.8;" vertex="1" parent="1">
          <mxGeometry x="540" y="-150" width="250" height="410" as="geometry" />
        </mxCell>
        <mxCell id="yK_RE_3933SGKBnFoA6W-2" value="- fullName: String&lt;br&gt;- age:int&lt;br&gt;- email:String&lt;br&gt;- id: long" style="part=1;html=1;resizeHeight=0;strokeColor=none;fillColor=none;align=left;verticalAlign=middle;spacingLeft=4;spacingRight=4;overflow=hidden;rotatable=0;points=[[0,0.5],[1,0.5]];portConstraint=eastwest;swimlaneFillColor=#ffffff;strokeOpacity=100;whiteSpace=wrap;fontSize=16.7;fontColor=#3a414a;" vertex="1" parent="yK_RE_3933SGKBnFoA6W-1">
          <mxGeometry y="25" width="250" height="115" as="geometry" />
        </mxCell>
        <mxCell id="yK_RE_3933SGKBnFoA6W-3" value="" style="line;strokeWidth=1;fillColor=none;align=left;verticalAlign=middle;spacingTop=-1;spacingLeft=3;spacingRight=3;rotatable=0;labelPosition=right;points=[];portConstraint=eastwest;" vertex="1" parent="yK_RE_3933SGKBnFoA6W-1">
          <mxGeometry y="140" width="250" height="8" as="geometry" />
        </mxCell>
        <mxCell id="yK_RE_3933SGKBnFoA6W-4" value="+ Person()&lt;br&gt;+ addMember()&lt;br&gt;+ getHealthInfo()&lt;br&gt;+ getfirstName()&lt;br&gt;+ getlastName()&lt;br&gt;+ getAge()&lt;br&gt;+ getEmail()&lt;br&gt;+ getId()&lt;br&gt;+ setId(int id)&lt;br&gt;+ setEmail(String email)&lt;br&gt;+ setAge(int age)&lt;br&gt;+ setlastName(String lname)&lt;br&gt;+ setfirstName(String fname)" style="part=1;html=1;resizeHeight=0;strokeColor=none;fillColor=none;align=left;verticalAlign=middle;spacingLeft=4;spacingRight=4;overflow=hidden;rotatable=0;points=[[0,0.5],[1,0.5]];portConstraint=eastwest;swimlaneFillColor=#ffffff;strokeOpacity=100;whiteSpace=wrap;fontSize=16.7;fontColor=#3a414a;" vertex="1" parent="yK_RE_3933SGKBnFoA6W-1">
          <mxGeometry y="148" width="250" height="262" as="geometry" />
        </mxCell>
        <mxCell id="yK_RE_3933SGKBnFoA6W-5" value="User" style="html=1;overflow=block;blockSpacing=1;swimlane;childLayout=stackLayout;horizontal=1;horizontalStack=0;resizeParent=1;resizeParentMax=0;resizeLast=0;collapsible=0;fontStyle=0;marginBottom=0;swimlaneFillColor=#ffffff;startSize=25;whiteSpace=wrap;fontSize=16.7;fontColor=#3a414a;align=center;spacing=0;strokeColor=#3a414a;strokeOpacity=100;rounded=1;absoluteArcSize=1;arcSize=9;strokeWidth=0.8;" vertex="1" parent="1">
          <mxGeometry x="120" y="405" width="270" height="280" as="geometry" />
        </mxCell>
        <mxCell id="yK_RE_3933SGKBnFoA6W-6" value="- familyName:String&#xa;- familyPassword: int" style="part=1;html=1;resizeHeight=0;strokeColor=none;fillColor=none;align=left;verticalAlign=middle;spacingLeft=4;spacingRight=4;overflow=hidden;rotatable=0;points=[[0,0.5],[1,0.5]];portConstraint=eastwest;swimlaneFillColor=#ffffff;strokeOpacity=100;whiteSpace=wrap;fontSize=16.7;fontColor=#3a414a;" vertex="1" parent="yK_RE_3933SGKBnFoA6W-5">
          <mxGeometry y="25" width="270" height="65" as="geometry" />
        </mxCell>
        <mxCell id="yK_RE_3933SGKBnFoA6W-7" value="" style="line;strokeWidth=1;fillColor=none;align=left;verticalAlign=middle;spacingTop=-1;spacingLeft=3;spacingRight=3;rotatable=0;labelPosition=right;points=[];portConstraint=eastwest;" vertex="1" parent="yK_RE_3933SGKBnFoA6W-5">
          <mxGeometry y="90" width="270" height="8" as="geometry" />
        </mxCell>
        <mxCell id="yK_RE_3933SGKBnFoA6W-8" value="+ User()&lt;br&gt;+ logIn()&lt;br&gt;+ addMember()&lt;br style=&quot;border-color: var(--border-color);&quot;&gt;+ getHealthInfo()&lt;br&gt;+ getFamilyName()&lt;br&gt;+ setFamilyName(String fn)&lt;br&gt;+ getFamilyPassword()&lt;br&gt;+ setFamilyPassword(int p)" style="part=1;html=1;resizeHeight=0;strokeColor=none;fillColor=none;align=left;verticalAlign=middle;spacingLeft=4;spacingRight=4;overflow=hidden;rotatable=0;points=[[0,0.5],[1,0.5]];portConstraint=eastwest;swimlaneFillColor=#ffffff;strokeOpacity=100;whiteSpace=wrap;fontSize=16.7;fontColor=#3a414a;" vertex="1" parent="yK_RE_3933SGKBnFoA6W-5">
          <mxGeometry y="98" width="270" height="182" as="geometry" />
        </mxCell>
        <mxCell id="yK_RE_3933SGKBnFoA6W-9" value="Family" style="html=1;overflow=block;blockSpacing=1;swimlane;childLayout=stackLayout;horizontal=1;horizontalStack=0;resizeParent=1;resizeParentMax=0;resizeLast=0;collapsible=0;fontStyle=0;marginBottom=0;swimlaneFillColor=#ffffff;startSize=25;whiteSpace=wrap;fontSize=16.7;fontColor=#3a414a;align=center;spacing=0;strokeColor=#3a414a;strokeOpacity=100;rounded=1;absoluteArcSize=1;arcSize=9;strokeWidth=0.8;" vertex="1" parent="1">
          <mxGeometry x="750" y="390" width="270" height="340" as="geometry" />
        </mxCell>
        <mxCell id="yK_RE_3933SGKBnFoA6W-10" value="- familyName:String&#xa;- familyPassword: int&#xa;- members: String []" style="part=1;html=1;resizeHeight=0;strokeColor=none;fillColor=none;align=left;verticalAlign=middle;spacingLeft=4;spacingRight=4;overflow=hidden;rotatable=0;points=[[0,0.5],[1,0.5]];portConstraint=eastwest;swimlaneFillColor=#ffffff;strokeOpacity=100;whiteSpace=wrap;fontSize=16.7;fontColor=#3a414a;" vertex="1" parent="yK_RE_3933SGKBnFoA6W-9">
          <mxGeometry y="25" width="270" height="65" as="geometry" />
        </mxCell>
        <mxCell id="yK_RE_3933SGKBnFoA6W-11" value="" style="line;strokeWidth=1;fillColor=none;align=left;verticalAlign=middle;spacingTop=-1;spacingLeft=3;spacingRight=3;rotatable=0;labelPosition=right;points=[];portConstraint=eastwest;" vertex="1" parent="yK_RE_3933SGKBnFoA6W-9">
          <mxGeometry y="90" width="270" height="8" as="geometry" />
        </mxCell>
        <mxCell id="yK_RE_3933SGKBnFoA6W-12" value="+ Family()&lt;br&gt;+ authenticate()&lt;br&gt;+ addMember()&lt;br style=&quot;border-color: var(--border-color);&quot;&gt;+ getHealthInfo()&lt;br&gt;+ getFamilyName()&lt;br&gt;+ setFamilyName(String fn)&lt;br&gt;+ getFamilyPassword()&lt;br&gt;+ setFamilyPassword(int p)&lt;br&gt;+ getMembers()&lt;br&gt;+ removeMember()" style="part=1;html=1;resizeHeight=0;strokeColor=none;fillColor=none;align=left;verticalAlign=middle;spacingLeft=4;spacingRight=4;overflow=hidden;rotatable=0;points=[[0,0.5],[1,0.5]];portConstraint=eastwest;swimlaneFillColor=#ffffff;strokeOpacity=100;whiteSpace=wrap;fontSize=16.7;fontColor=#3a414a;" vertex="1" parent="yK_RE_3933SGKBnFoA6W-9">
          <mxGeometry y="98" width="270" height="242" as="geometry" />
        </mxCell>
        <mxCell id="yK_RE_3933SGKBnFoA6W-13" value="" style="html=1;jettySize=18;whiteSpace=wrap;fontSize=13;strokeColor=#3a414a;strokeOpacity=100;strokeWidth=0.8;rounded=1;arcSize=12;edgeStyle=orthogonalEdgeStyle;startArrow=block;startFill=0;startSize=12;endArrow=none;exitX=0.344;exitY=1.001;exitPerimeter=0;entryX=0.5;entryY=-0.002;entryPerimeter=0;lucidId=hktWIN67sBrn;" edge="1" parent="1" source="yK_RE_3933SGKBnFoA6W-1" target="yK_RE_3933SGKBnFoA6W-5">
          <mxGeometry width="100" height="100" relative="1" as="geometry">
            <Array as="points" />
          </mxGeometry>
        </mxCell>
        <mxCell id="yK_RE_3933SGKBnFoA6W-14" value="" style="html=1;jettySize=18;whiteSpace=wrap;fontSize=13;strokeColor=#3a414a;strokeOpacity=100;strokeWidth=0.8;rounded=1;arcSize=12;edgeStyle=orthogonalEdgeStyle;startArrow=block;startFill=0;startSize=12;endArrow=none;exitX=0.5;exitY=1.001;exitPerimeter=0;entryX=0.5;entryY=-0.001;entryPerimeter=0;lucidId=wltWJ7eAdehP;" edge="1" parent="1" source="yK_RE_3933SGKBnFoA6W-1" target="yK_RE_3933SGKBnFoA6W-9">
          <mxGeometry width="100" height="100" relative="1" as="geometry">
            <Array as="points" />
          </mxGeometry>
        </mxCell>
        <mxCell id="yK_RE_3933SGKBnFoA6W-17" value="&lt;font color=&quot;#cc0000&quot;&gt;Abstract class (italic)&lt;/font&gt;" style="shape=callout;whiteSpace=wrap;html=1;perimeter=calloutPerimeter;" vertex="1" parent="1">
          <mxGeometry x="620" y="-230" width="120" height="80" as="geometry" />
        </mxCell>
        <mxCell id="yK_RE_3933SGKBnFoA6W-19" value="" style="endArrow=classic;html=1;rounded=0;strokeColor=#CC0000;" edge="1" parent="1">
          <mxGeometry width="50" height="50" relative="1" as="geometry">
            <mxPoint x="620" y="490" as="sourcePoint" />
            <mxPoint x="640" y="340" as="targetPoint" />
          </mxGeometry>
        </mxCell>
        <mxCell id="yK_RE_3933SGKBnFoA6W-20" value="Inheritance" style="text;html=1;align=center;verticalAlign=middle;resizable=0;points=[];autosize=1;strokeColor=none;fillColor=none;fontSize=19;" vertex="1" parent="1">
          <mxGeometry x="550" y="485" width="120" height="40" as="geometry" />
        </mxCell>
        <mxCell id="yK_RE_3933SGKBnFoA6W-22" value="" style="endArrow=classic;html=1;rounded=0;entryX=0.519;entryY=0.303;entryDx=0;entryDy=0;entryPerimeter=0;fontColor=#FF0000;strokeColor=#CC0000;" edge="1" parent="1" target="yK_RE_3933SGKBnFoA6W-8">
          <mxGeometry width="50" height="50" relative="1" as="geometry">
            <mxPoint x="560" y="650" as="sourcePoint" />
            <mxPoint x="860" y="320" as="targetPoint" />
          </mxGeometry>
        </mxCell>
        <mxCell id="yK_RE_3933SGKBnFoA6W-23" value="" style="endArrow=classic;html=1;rounded=0;entryX=-0.006;entryY=0.218;entryDx=0;entryDy=0;entryPerimeter=0;strokeColor=#CC0000;" edge="1" parent="1" target="yK_RE_3933SGKBnFoA6W-12">
          <mxGeometry width="50" height="50" relative="1" as="geometry">
            <mxPoint x="590" y="650" as="sourcePoint" />
            <mxPoint x="860" y="320" as="targetPoint" />
          </mxGeometry>
        </mxCell>
        <mxCell id="yK_RE_3933SGKBnFoA6W-24" value="Polymorphism&lt;br style=&quot;font-size: 15px;&quot;&gt;" style="text;html=1;align=center;verticalAlign=middle;resizable=0;points=[];autosize=1;strokeColor=none;fillColor=none;fontSize=15;" vertex="1" parent="1">
          <mxGeometry x="510" y="660" width="120" height="30" as="geometry" />
        </mxCell>
        <mxCell id="yK_RE_3933SGKBnFoA6W-25" value="&amp;nbsp;User&amp;nbsp; &amp;nbsp; &amp;nbsp; &amp;nbsp; &amp;nbsp; &amp;nbsp; &amp;nbsp; &amp;nbsp; &amp;nbsp; &amp;nbsp; &lt;span style=&quot;white-space: pre;&quot;&gt;	&lt;/span&gt;&lt;span style=&quot;white-space: pre;&quot;&gt;	&lt;/span&gt;&amp;nbsp; FHI App&amp;nbsp; &amp;nbsp; &amp;nbsp; &amp;nbsp; &amp;nbsp; &amp;nbsp; &amp;nbsp; &amp;nbsp; &amp;nbsp; &amp;nbsp;&lt;span style=&quot;white-space: pre;&quot;&gt;	&lt;/span&gt;&amp;nbsp; &amp;nbsp; Family&lt;br&gt;&amp;nbsp; &amp;nbsp; |&amp;nbsp; &amp;nbsp; &amp;nbsp; &amp;nbsp; &amp;nbsp; &amp;nbsp; &amp;nbsp; &amp;nbsp; &amp;nbsp; &amp;nbsp; &amp;nbsp; &amp;nbsp;&lt;span style=&quot;white-space: pre;&quot;&gt;	&lt;/span&gt;&lt;span style=&quot;white-space: pre;&quot;&gt;	&lt;/span&gt;&lt;span style=&quot;white-space: pre;&quot;&gt;	&lt;/span&gt;|&amp;nbsp; &amp;nbsp; &amp;nbsp; &amp;nbsp; &amp;nbsp; &amp;nbsp; &amp;nbsp; &amp;nbsp; &amp;nbsp; &amp;nbsp; &amp;nbsp; &amp;nbsp;&lt;span style=&quot;white-space: pre;&quot;&gt;	&lt;/span&gt;&lt;span style=&quot;white-space: pre;&quot;&gt;	&lt;/span&gt; |&lt;br&gt;&amp;nbsp; &amp;nbsp; |&amp;nbsp; login(familyName,&amp;nbsp; &amp;nbsp;&lt;span style=&quot;white-space: pre;&quot;&gt;	&lt;/span&gt;&lt;span style=&quot;white-space: pre;&quot;&gt;	&lt;/span&gt;|&amp;nbsp; &amp;nbsp; &amp;nbsp; &amp;nbsp; &amp;nbsp; &amp;nbsp; &amp;nbsp; &amp;nbsp; &amp;nbsp; &amp;nbsp; &amp;nbsp; &amp;nbsp;&lt;span style=&quot;white-space: pre;&quot;&gt;	&lt;/span&gt;&lt;span style=&quot;white-space: pre;&quot;&gt;	&lt;/span&gt; |&lt;br&gt;&amp;nbsp; &amp;nbsp; |&amp;nbsp; &amp;nbsp; &amp;nbsp; &amp;nbsp; familyPassword)&lt;span style=&quot;white-space: pre;&quot;&gt;	&lt;/span&gt;&lt;span style=&quot;white-space: pre;&quot;&gt;	&lt;/span&gt;|&amp;nbsp; &amp;nbsp; &amp;nbsp; &amp;nbsp; &amp;nbsp; &amp;nbsp; &amp;nbsp; &amp;nbsp; &amp;nbsp; &amp;nbsp; &amp;nbsp; &amp;nbsp;&lt;span style=&quot;white-space: pre;&quot;&gt;	&lt;/span&gt;&lt;span style=&quot;white-space: pre;&quot;&gt;	&lt;/span&gt; |&lt;br&gt;&amp;nbsp; &amp;nbsp; |----------------------------------&amp;gt;|&amp;nbsp; &amp;nbsp; &amp;nbsp; &amp;nbsp; &amp;nbsp; &amp;nbsp; &amp;nbsp; &amp;nbsp; &amp;nbsp; &amp;nbsp; &amp;nbsp; &amp;nbsp; &lt;span style=&quot;white-space: pre;&quot;&gt;	&lt;/span&gt;&lt;span style=&quot;white-space: pre;&quot;&gt;	&lt;/span&gt;&amp;nbsp;|&lt;br&gt;&amp;nbsp; &amp;nbsp; |&amp;nbsp; &amp;nbsp; &amp;nbsp; &amp;nbsp; &amp;nbsp; &amp;nbsp; &amp;nbsp; &amp;nbsp; &amp;nbsp; &amp;nbsp; &amp;nbsp; &amp;nbsp;&lt;span style=&quot;white-space: pre;&quot;&gt;	&lt;/span&gt;&lt;span style=&quot;white-space: pre;&quot;&gt;	&lt;/span&gt;&lt;span style=&quot;white-space: pre;&quot;&gt;	&lt;/span&gt;|&amp;nbsp; &amp;nbsp; &amp;nbsp; &amp;nbsp; &amp;nbsp; &amp;nbsp; &amp;nbsp; &amp;nbsp; &amp;nbsp; &amp;nbsp; &amp;nbsp; &amp;nbsp; &lt;span style=&quot;white-space: pre;&quot;&gt;	&lt;/span&gt;&lt;span style=&quot;white-space: pre;&quot;&gt;	&lt;/span&gt;&amp;nbsp;|&lt;br&gt;&amp;nbsp; &amp;nbsp; |&amp;nbsp; &amp;nbsp; &amp;nbsp; &amp;nbsp; &amp;nbsp; &amp;nbsp; &amp;nbsp; &amp;nbsp; &amp;nbsp; &amp;nbsp; &amp;nbsp; &amp;nbsp;&lt;span style=&quot;white-space: pre;&quot;&gt;	&lt;/span&gt;&lt;span style=&quot;white-space: pre;&quot;&gt;	&lt;/span&gt;&lt;span style=&quot;white-space: pre;&quot;&gt;	&lt;/span&gt;|&amp;nbsp; &amp;nbsp;getFamily(familyName)|&lt;br&gt;&amp;nbsp; &amp;nbsp; |&amp;nbsp; &amp;nbsp; &amp;nbsp; &amp;nbsp; &amp;nbsp; &amp;nbsp; &amp;nbsp; &amp;nbsp; &amp;nbsp; &amp;nbsp; &amp;nbsp; &amp;nbsp;&lt;span style=&quot;white-space: pre;&quot;&gt;	&lt;/span&gt;&lt;span style=&quot;white-space: pre;&quot;&gt;	&lt;/span&gt;&lt;span style=&quot;white-space: pre;&quot;&gt;	&lt;/span&gt;| -------------------------------&amp;gt;|&lt;br&gt;&amp;nbsp; &amp;nbsp; |&amp;nbsp; &amp;nbsp; &amp;nbsp; &amp;nbsp; &amp;nbsp; &amp;nbsp; &amp;nbsp; &amp;nbsp; &amp;nbsp; &amp;nbsp; &amp;nbsp; &amp;nbsp;&lt;span style=&quot;white-space: pre;&quot;&gt;	&lt;/span&gt;&lt;span style=&quot;white-space: pre;&quot;&gt;	&lt;/span&gt;&lt;span style=&quot;white-space: pre;&quot;&gt;	&lt;/span&gt;|&amp;nbsp; &amp;nbsp; &amp;nbsp; &amp;nbsp; &amp;nbsp; &amp;nbsp; &amp;nbsp; &amp;nbsp; &amp;nbsp; &amp;nbsp; &amp;nbsp; &amp;nbsp; &lt;span style=&quot;white-space: pre;&quot;&gt;	&lt;/span&gt;&lt;span style=&quot;white-space: pre;&quot;&gt;	&lt;/span&gt;&amp;nbsp;|&lt;br&gt;&amp;nbsp; &amp;nbsp; |&amp;nbsp; &amp;nbsp; &amp;nbsp; &amp;nbsp; &amp;nbsp; &amp;nbsp; &amp;nbsp; &amp;nbsp; &amp;nbsp; &amp;nbsp; &amp;nbsp; &amp;nbsp;&lt;span style=&quot;white-space: pre;&quot;&gt;	&lt;/span&gt;&lt;span style=&quot;white-space: pre;&quot;&gt;	&lt;/span&gt;&lt;span style=&quot;white-space: pre;&quot;&gt;	&lt;/span&gt;|&amp;nbsp; &amp;nbsp; &amp;nbsp;addMember()&amp;nbsp; &amp;nbsp; &amp;nbsp; &amp;nbsp; &lt;span style=&quot;white-space: pre;&quot;&gt;	&lt;/span&gt;&amp;nbsp;|&lt;br&gt;&amp;nbsp; &amp;nbsp; |&amp;nbsp; &amp;nbsp; &amp;nbsp; &amp;nbsp; &amp;nbsp; &amp;nbsp; &amp;nbsp; &amp;nbsp; &amp;nbsp; &amp;nbsp; &amp;nbsp; &amp;nbsp;&lt;span style=&quot;white-space: pre;&quot;&gt;	&lt;/span&gt;&lt;span style=&quot;white-space: pre;&quot;&gt;	&lt;/span&gt;&amp;nbsp;&lt;span style=&quot;white-space: pre;&quot;&gt;	&lt;/span&gt;|&amp;lt;------------------------------&amp;nbsp; |&lt;br&gt;&amp;nbsp; &amp;nbsp; |&amp;nbsp; addMember(newMember)|&amp;nbsp; &amp;nbsp; &amp;nbsp; &amp;nbsp; &amp;nbsp; &amp;nbsp; &amp;nbsp; &amp;nbsp; &amp;nbsp; &amp;nbsp; &amp;nbsp; &amp;nbsp; &lt;span style=&quot;white-space: pre;&quot;&gt;	&lt;/span&gt;&lt;span style=&quot;white-space: pre;&quot;&gt;	&lt;/span&gt;&amp;nbsp;|&lt;br&gt;&amp;nbsp; &amp;nbsp; |&amp;lt;----------------------------------|&amp;nbsp; &amp;nbsp; &amp;nbsp; &amp;nbsp; &amp;nbsp; &amp;nbsp; &amp;nbsp; &amp;nbsp; &amp;nbsp; &lt;span style=&quot;white-space: pre;&quot;&gt;	&lt;/span&gt;&lt;span style=&quot;white-space: pre;&quot;&gt;	&lt;/span&gt;&amp;nbsp; &amp;nbsp;&amp;nbsp; &amp;nbsp; &amp;nbsp; |&lt;br&gt;&amp;nbsp; &amp;nbsp; |&amp;nbsp; &amp;nbsp; &amp;nbsp; &amp;nbsp; &amp;nbsp; &amp;nbsp; &amp;nbsp; &amp;nbsp; &amp;nbsp; &amp;nbsp; &amp;nbsp; &amp;nbsp;&lt;span style=&quot;white-space: pre;&quot;&gt;	&lt;/span&gt;&lt;span style=&quot;white-space: pre;&quot;&gt;	&lt;/span&gt;&lt;span style=&quot;white-space: pre;&quot;&gt;	&lt;/span&gt;|&amp;nbsp; &amp;nbsp; &amp;nbsp; &amp;nbsp; &amp;nbsp; &amp;nbsp; &amp;nbsp; &amp;nbsp; &amp;nbsp; &amp;nbsp; &amp;nbsp; &amp;nbsp; &lt;span style=&quot;white-space: pre;&quot;&gt;	&lt;/span&gt;&lt;span style=&quot;white-space: pre;&quot;&gt;	&lt;/span&gt;&amp;nbsp;|&lt;br&gt;&amp;nbsp; &amp;nbsp; |&amp;nbsp; &amp;nbsp; &amp;nbsp; &amp;nbsp; &amp;nbsp; &amp;nbsp; &amp;nbsp; &amp;nbsp; &amp;nbsp; &amp;nbsp; &amp;nbsp; &amp;nbsp;&lt;span style=&quot;white-space: pre;&quot;&gt;	&lt;/span&gt;&lt;span style=&quot;white-space: pre;&quot;&gt;	&lt;/span&gt;&lt;span style=&quot;white-space: pre;&quot;&gt;	&lt;/span&gt;|&amp;nbsp; &amp;nbsp; &amp;nbsp; &amp;nbsp;getHealthInfo()&amp;nbsp; &amp;nbsp; &amp;nbsp; &amp;nbsp; &amp;nbsp;|&lt;br&gt;&amp;nbsp; &amp;nbsp; |&amp;nbsp; &amp;nbsp; &amp;nbsp; &amp;nbsp; &amp;nbsp; &amp;nbsp; &amp;nbsp; &amp;nbsp; &amp;nbsp; &amp;nbsp; &amp;nbsp; &amp;nbsp;&lt;span style=&quot;white-space: pre;&quot;&gt;	&lt;/span&gt;&lt;span style=&quot;white-space: pre;&quot;&gt;	&lt;/span&gt;&lt;span style=&quot;white-space: pre;&quot;&gt;	&lt;/span&gt;|&amp;lt;------------------------------- |&lt;br&gt;&amp;nbsp; &amp;nbsp; |&amp;nbsp; &amp;nbsp; &amp;nbsp; &amp;nbsp;getHealthInfo() &lt;span style=&quot;white-space: pre;&quot;&gt;	&lt;/span&gt;&lt;span style=&quot;white-space: pre;&quot;&gt;	&lt;/span&gt;|&amp;nbsp; &amp;nbsp; &amp;nbsp; &amp;nbsp; &amp;nbsp; &amp;nbsp; &amp;nbsp; &amp;nbsp; &amp;nbsp; &amp;nbsp; &amp;nbsp; &amp;nbsp; &lt;span style=&quot;white-space: pre;&quot;&gt;	&lt;/span&gt;&lt;span style=&quot;white-space: pre;&quot;&gt;	&lt;/span&gt;&amp;nbsp;|&lt;br&gt;&amp;nbsp; &amp;nbsp; |&amp;lt;----------------------------------|&amp;nbsp; &amp;nbsp; &amp;nbsp; &amp;nbsp; &amp;nbsp; &amp;nbsp; &amp;nbsp; &amp;nbsp; &amp;nbsp; &amp;nbsp; &amp;nbsp; &amp;nbsp;&lt;span style=&quot;white-space: pre;&quot;&gt;	&lt;/span&gt;&lt;span style=&quot;white-space: pre;&quot;&gt;	&lt;/span&gt; |" style="text;whiteSpace=wrap;html=1;" vertex="1" parent="1">
          <mxGeometry x="-10" y="760" width="290" height="500" as="geometry" />
        </mxCell>
        <mxCell id="yK_RE_3933SGKBnFoA6W-32" value="Family" style="text;html=1;align=center;verticalAlign=middle;resizable=0;points=[];autosize=1;strokeColor=none;fillColor=none;" vertex="1" parent="1">
          <mxGeometry x="566" y="840" width="60" height="30" as="geometry" />
        </mxCell>
        <mxCell id="yK_RE_3933SGKBnFoA6W-33" value="" style="endArrow=none;dashed=1;html=1;rounded=0;" edge="1" parent="1">
          <mxGeometry width="50" height="50" relative="1" as="geometry">
            <mxPoint x="435.12" y="870" as="sourcePoint" />
            <mxPoint x="434.79" y="1042" as="targetPoint" />
          </mxGeometry>
        </mxCell>
        <mxCell id="yK_RE_3933SGKBnFoA6W-34" value="" style="endArrow=none;dashed=1;html=1;rounded=0;" edge="1" parent="1">
          <mxGeometry width="50" height="50" relative="1" as="geometry">
            <mxPoint x="596" y="870" as="sourcePoint" />
            <mxPoint x="596" y="1042" as="targetPoint" />
          </mxGeometry>
        </mxCell>
        <mxCell id="yK_RE_3933SGKBnFoA6W-35" value="&lt;span style=&quot;&quot;&gt;	&lt;/span&gt;&lt;span style=&quot;&quot;&gt;	&lt;/span&gt;login(familyName,&lt;br&gt;familyPassword)" style="text;html=1;align=center;verticalAlign=middle;resizable=0;points=[];autosize=1;strokeColor=none;fillColor=none;" vertex="1" parent="1">
          <mxGeometry x="451" y="870" width="120" height="40" as="geometry" />
        </mxCell>
        <mxCell id="yK_RE_3933SGKBnFoA6W-36" value="" style="endArrow=classic;html=1;rounded=0;" edge="1" parent="1">
          <mxGeometry relative="1" as="geometry">
            <mxPoint x="440" y="910" as="sourcePoint" />
            <mxPoint x="590" y="910" as="targetPoint" />
            <Array as="points">
              <mxPoint x="504" y="910" />
            </Array>
          </mxGeometry>
        </mxCell>
        <mxCell id="yK_RE_3933SGKBnFoA6W-37" value="" style="endArrow=classic;html=1;rounded=0;" edge="1" parent="1">
          <mxGeometry relative="1" as="geometry">
            <mxPoint x="590" y="990" as="sourcePoint" />
            <mxPoint x="440" y="990" as="targetPoint" />
            <Array as="points">
              <mxPoint x="500" y="990" />
            </Array>
          </mxGeometry>
        </mxCell>
        <mxCell id="yK_RE_3933SGKBnFoA6W-38" value="authenticate(boolean)" style="text;html=1;align=center;verticalAlign=middle;resizable=0;points=[];autosize=1;strokeColor=none;fillColor=none;" vertex="1" parent="1">
          <mxGeometry x="441" y="960" width="140" height="30" as="geometry" />
        </mxCell>
        <mxCell id="yK_RE_3933SGKBnFoA6W-43" value="addMember(member)" style="text;html=1;align=center;verticalAlign=middle;resizable=0;points=[];autosize=1;strokeColor=none;fillColor=none;" vertex="1" parent="1">
          <mxGeometry x="442.5" y="1132" width="140" height="30" as="geometry" />
        </mxCell>
        <mxCell id="yK_RE_3933SGKBnFoA6W-44" value="" style="endArrow=classic;html=1;rounded=0;exitX=0.314;exitY=0.333;exitDx=0;exitDy=0;exitPerimeter=0;" edge="1" parent="1">
          <mxGeometry relative="1" as="geometry">
            <mxPoint x="442.5" y="1162" as="sourcePoint" />
            <mxPoint x="597.5" y="1162" as="targetPoint" />
            <Array as="points">
              <mxPoint x="512.5" y="1162" />
            </Array>
          </mxGeometry>
        </mxCell>
        <mxCell id="yK_RE_3933SGKBnFoA6W-45" value="" style="endArrow=classic;html=1;rounded=0;" edge="1" parent="1">
          <mxGeometry relative="1" as="geometry">
            <mxPoint x="596" y="1240" as="sourcePoint" />
            <mxPoint x="441" y="1240" as="targetPoint" />
            <Array as="points">
              <mxPoint x="511" y="1240" />
            </Array>
          </mxGeometry>
        </mxCell>
        <mxCell id="yK_RE_3933SGKBnFoA6W-48" value="User" style="text;html=1;align=center;verticalAlign=middle;resizable=0;points=[];autosize=1;strokeColor=none;fillColor=none;" vertex="1" parent="1">
          <mxGeometry x="410" y="1100" width="50" height="30" as="geometry" />
        </mxCell>
        <mxCell id="yK_RE_3933SGKBnFoA6W-49" value="Family" style="text;html=1;align=center;verticalAlign=middle;resizable=0;points=[];autosize=1;strokeColor=none;fillColor=none;" vertex="1" parent="1">
          <mxGeometry x="570" y="1100" width="60" height="30" as="geometry" />
        </mxCell>
        <mxCell id="yK_RE_3933SGKBnFoA6W-50" value="" style="endArrow=none;dashed=1;html=1;rounded=0;" edge="1" parent="1">
          <mxGeometry width="50" height="50" relative="1" as="geometry">
            <mxPoint x="440.5899999999999" y="1130" as="sourcePoint" />
            <mxPoint x="440.26" y="1302" as="targetPoint" />
          </mxGeometry>
        </mxCell>
        <mxCell id="yK_RE_3933SGKBnFoA6W-51" value="" style="endArrow=none;dashed=1;html=1;rounded=0;" edge="1" parent="1">
          <mxGeometry width="50" height="50" relative="1" as="geometry">
            <mxPoint x="600" y="1130" as="sourcePoint" />
            <mxPoint x="600" y="1302" as="targetPoint" />
          </mxGeometry>
        </mxCell>
        <mxCell id="yK_RE_3933SGKBnFoA6W-52" value="User" style="text;html=1;align=center;verticalAlign=middle;resizable=0;points=[];autosize=1;strokeColor=none;fillColor=none;" vertex="1" parent="1">
          <mxGeometry x="400" y="840" width="50" height="30" as="geometry" />
        </mxCell>
        <mxCell id="yK_RE_3933SGKBnFoA6W-53" value="Database" style="text;html=1;align=center;verticalAlign=middle;resizable=0;points=[];autosize=1;strokeColor=none;fillColor=none;" vertex="1" parent="1">
          <mxGeometry x="695" y="840" width="70" height="30" as="geometry" />
        </mxCell>
        <mxCell id="yK_RE_3933SGKBnFoA6W-54" value="" style="endArrow=none;dashed=1;html=1;rounded=0;" edge="1" parent="1">
          <mxGeometry width="50" height="50" relative="1" as="geometry">
            <mxPoint x="730" y="870" as="sourcePoint" />
            <mxPoint x="730" y="1042" as="targetPoint" />
          </mxGeometry>
        </mxCell>
        <mxCell id="yK_RE_3933SGKBnFoA6W-55" value="" style="endArrow=classic;html=1;rounded=0;" edge="1" parent="1">
          <mxGeometry width="50" height="50" relative="1" as="geometry">
            <mxPoint x="600" y="930" as="sourcePoint" />
            <mxPoint x="730" y="930" as="targetPoint" />
          </mxGeometry>
        </mxCell>
        <mxCell id="yK_RE_3933SGKBnFoA6W-56" value="Does this exist?" style="text;html=1;align=center;verticalAlign=middle;resizable=0;points=[];autosize=1;strokeColor=none;fillColor=none;" vertex="1" parent="1">
          <mxGeometry x="600" y="900" width="110" height="30" as="geometry" />
        </mxCell>
        <mxCell id="yK_RE_3933SGKBnFoA6W-57" value="" style="endArrow=classic;html=1;rounded=0;" edge="1" parent="1">
          <mxGeometry width="50" height="50" relative="1" as="geometry">
            <mxPoint x="730" y="962" as="sourcePoint" />
            <mxPoint x="600" y="962" as="targetPoint" />
          </mxGeometry>
        </mxCell>
        <mxCell id="yK_RE_3933SGKBnFoA6W-58" value="Yes/no" style="text;html=1;align=center;verticalAlign=middle;resizable=0;points=[];autosize=1;strokeColor=none;fillColor=none;" vertex="1" parent="1">
          <mxGeometry x="620" y="940" width="60" height="30" as="geometry" />
        </mxCell>
        <mxCell id="yK_RE_3933SGKBnFoA6W-59" value="Database" style="text;html=1;align=center;verticalAlign=middle;resizable=0;points=[];autosize=1;strokeColor=none;fillColor=none;" vertex="1" parent="1">
          <mxGeometry x="695" y="1100" width="70" height="30" as="geometry" />
        </mxCell>
        <mxCell id="yK_RE_3933SGKBnFoA6W-60" value="" style="endArrow=none;dashed=1;html=1;rounded=0;" edge="1" parent="1">
          <mxGeometry width="50" height="50" relative="1" as="geometry">
            <mxPoint x="730" y="1130" as="sourcePoint" />
            <mxPoint x="730" y="1302" as="targetPoint" />
          </mxGeometry>
        </mxCell>
        <mxCell id="yK_RE_3933SGKBnFoA6W-61" value="" style="endArrow=classic;html=1;rounded=0;" edge="1" parent="1">
          <mxGeometry width="50" height="50" relative="1" as="geometry">
            <mxPoint x="600" y="1180" as="sourcePoint" />
            <mxPoint x="730" y="1180" as="targetPoint" />
          </mxGeometry>
        </mxCell>
        <mxCell id="yK_RE_3933SGKBnFoA6W-62" value="&amp;nbsp;does member exist?" style="text;html=1;align=center;verticalAlign=middle;resizable=0;points=[];autosize=1;strokeColor=none;fillColor=none;" vertex="1" parent="1">
          <mxGeometry x="590" y="1150" width="130" height="30" as="geometry" />
        </mxCell>
        <mxCell id="yK_RE_3933SGKBnFoA6W-63" value="" style="endArrow=classic;html=1;rounded=0;" edge="1" parent="1">
          <mxGeometry width="50" height="50" relative="1" as="geometry">
            <mxPoint x="730" y="1220" as="sourcePoint" />
            <mxPoint x="600" y="1220" as="targetPoint" />
          </mxGeometry>
        </mxCell>
        <mxCell id="yK_RE_3933SGKBnFoA6W-64" value="Yes/no" style="text;html=1;align=center;verticalAlign=middle;resizable=0;points=[];autosize=1;strokeColor=none;fillColor=none;" vertex="1" parent="1">
          <mxGeometry x="620" y="1190" width="60" height="30" as="geometry" />
        </mxCell>
        <mxCell id="yK_RE_3933SGKBnFoA6W-65" value="added to the family list" style="text;html=1;align=center;verticalAlign=middle;resizable=0;points=[];autosize=1;strokeColor=none;fillColor=none;" vertex="1" parent="1">
          <mxGeometry x="450" y="1210" width="140" height="30" as="geometry" />
        </mxCell>
        <mxCell id="yK_RE_3933SGKBnFoA6W-66" value="removeMember(member)" style="text;html=1;align=center;verticalAlign=middle;resizable=0;points=[];autosize=1;strokeColor=none;fillColor=none;" vertex="1" parent="1">
          <mxGeometry x="432.5" y="1350" width="160" height="30" as="geometry" />
        </mxCell>
        <mxCell id="yK_RE_3933SGKBnFoA6W-67" value="" style="endArrow=classic;html=1;rounded=0;exitX=0.314;exitY=0.333;exitDx=0;exitDy=0;exitPerimeter=0;" edge="1" parent="1">
          <mxGeometry relative="1" as="geometry">
            <mxPoint x="442.5" y="1380" as="sourcePoint" />
            <mxPoint x="597.5" y="1380" as="targetPoint" />
            <Array as="points">
              <mxPoint x="512.5" y="1380" />
            </Array>
          </mxGeometry>
        </mxCell>
        <mxCell id="yK_RE_3933SGKBnFoA6W-68" value="" style="endArrow=classic;html=1;rounded=0;" edge="1" parent="1">
          <mxGeometry relative="1" as="geometry">
            <mxPoint x="596" y="1458" as="sourcePoint" />
            <mxPoint x="441" y="1458" as="targetPoint" />
            <Array as="points">
              <mxPoint x="511" y="1458" />
            </Array>
          </mxGeometry>
        </mxCell>
        <mxCell id="yK_RE_3933SGKBnFoA6W-69" value="User" style="text;html=1;align=center;verticalAlign=middle;resizable=0;points=[];autosize=1;strokeColor=none;fillColor=none;" vertex="1" parent="1">
          <mxGeometry x="410" y="1318" width="50" height="30" as="geometry" />
        </mxCell>
        <mxCell id="yK_RE_3933SGKBnFoA6W-70" value="Family" style="text;html=1;align=center;verticalAlign=middle;resizable=0;points=[];autosize=1;strokeColor=none;fillColor=none;" vertex="1" parent="1">
          <mxGeometry x="570" y="1318" width="60" height="30" as="geometry" />
        </mxCell>
        <mxCell id="yK_RE_3933SGKBnFoA6W-71" value="" style="endArrow=none;dashed=1;html=1;rounded=0;" edge="1" parent="1">
          <mxGeometry width="50" height="50" relative="1" as="geometry">
            <mxPoint x="440.5899999999999" y="1348" as="sourcePoint" />
            <mxPoint x="440.26" y="1520" as="targetPoint" />
          </mxGeometry>
        </mxCell>
        <mxCell id="yK_RE_3933SGKBnFoA6W-72" value="" style="endArrow=none;dashed=1;html=1;rounded=0;" edge="1" parent="1">
          <mxGeometry width="50" height="50" relative="1" as="geometry">
            <mxPoint x="600" y="1348" as="sourcePoint" />
            <mxPoint x="600" y="1520" as="targetPoint" />
          </mxGeometry>
        </mxCell>
        <mxCell id="yK_RE_3933SGKBnFoA6W-73" value="Database" style="text;html=1;align=center;verticalAlign=middle;resizable=0;points=[];autosize=1;strokeColor=none;fillColor=none;" vertex="1" parent="1">
          <mxGeometry x="695" y="1318" width="70" height="30" as="geometry" />
        </mxCell>
        <mxCell id="yK_RE_3933SGKBnFoA6W-74" value="" style="endArrow=none;dashed=1;html=1;rounded=0;" edge="1" parent="1">
          <mxGeometry width="50" height="50" relative="1" as="geometry">
            <mxPoint x="730" y="1348" as="sourcePoint" />
            <mxPoint x="730" y="1520" as="targetPoint" />
          </mxGeometry>
        </mxCell>
        <mxCell id="yK_RE_3933SGKBnFoA6W-75" value="" style="endArrow=classic;html=1;rounded=0;" edge="1" parent="1">
          <mxGeometry width="50" height="50" relative="1" as="geometry">
            <mxPoint x="600" y="1398" as="sourcePoint" />
            <mxPoint x="730" y="1398" as="targetPoint" />
          </mxGeometry>
        </mxCell>
        <mxCell id="yK_RE_3933SGKBnFoA6W-76" value="&amp;nbsp;does member exist?" style="text;html=1;align=center;verticalAlign=middle;resizable=0;points=[];autosize=1;strokeColor=none;fillColor=none;" vertex="1" parent="1">
          <mxGeometry x="590" y="1368" width="130" height="30" as="geometry" />
        </mxCell>
        <mxCell id="yK_RE_3933SGKBnFoA6W-77" value="" style="endArrow=classic;html=1;rounded=0;" edge="1" parent="1">
          <mxGeometry width="50" height="50" relative="1" as="geometry">
            <mxPoint x="730" y="1438" as="sourcePoint" />
            <mxPoint x="600" y="1438" as="targetPoint" />
          </mxGeometry>
        </mxCell>
        <mxCell id="yK_RE_3933SGKBnFoA6W-78" value="Yes/no" style="text;html=1;align=center;verticalAlign=middle;resizable=0;points=[];autosize=1;strokeColor=none;fillColor=none;" vertex="1" parent="1">
          <mxGeometry x="620" y="1408" width="60" height="30" as="geometry" />
        </mxCell>
        <mxCell id="yK_RE_3933SGKBnFoA6W-79" value="removed from the family list" style="text;html=1;align=center;verticalAlign=middle;resizable=0;points=[];autosize=1;strokeColor=none;fillColor=none;" vertex="1" parent="1">
          <mxGeometry x="435" y="1428" width="170" height="30" as="geometry" />
        </mxCell>
      </root>
    </mxGraphModel>
  </diagram>
</mxfile>
